<mxfile host="app.diagrams.net" modified="2023-10-11T01:56:42.425Z" agent="Mozilla/5.0 (Macintosh; Intel Mac OS X 10_15_7) AppleWebKit/537.36 (KHTML, like Gecko) Chrome/117.0.0.0 Safari/537.36" etag="Wz9hhVOuz_j96G5ELFtN" version="21.8.2" type="github">
  <diagram name="Page-1" id="0xXDIpslHWF_h3QKl0N0">
    <mxGraphModel dx="2205" dy="1576" grid="0" gridSize="10" guides="1" tooltips="1" connect="1" arrows="1" fold="1" page="0" pageScale="1" pageWidth="827" pageHeight="1169" math="0" shadow="0">
      <root>
        <mxCell id="0" />
        <mxCell id="1" parent="0" />
        <mxCell id="wwoop0thXE-48_Gn2f_M-79" style="edgeStyle=none;curved=1;rounded=0;orthogonalLoop=1;jettySize=auto;html=1;exitX=0.5;exitY=0;exitDx=0;exitDy=0;fontSize=12;startSize=8;endSize=8;" edge="1" parent="1">
          <mxGeometry relative="1" as="geometry">
            <mxPoint x="87" y="-410" as="sourcePoint" />
            <mxPoint x="87" y="-410" as="targetPoint" />
          </mxGeometry>
        </mxCell>
        <mxCell id="wwoop0thXE-48_Gn2f_M-177" value="User" style="whiteSpace=wrap;html=1;align=center;fontSize=16;" vertex="1" parent="1">
          <mxGeometry x="-259" y="-543" width="100" height="40" as="geometry" />
        </mxCell>
        <mxCell id="wwoop0thXE-48_Gn2f_M-179" value="Hashtag" style="whiteSpace=wrap;html=1;align=center;fontSize=16;" vertex="1" parent="1">
          <mxGeometry x="200" y="-530" width="100" height="40" as="geometry" />
        </mxCell>
        <mxCell id="wwoop0thXE-48_Gn2f_M-180" value="Comment" style="whiteSpace=wrap;html=1;align=center;fontSize=16;" vertex="1" parent="1">
          <mxGeometry x="429" y="-310" width="100" height="40" as="geometry" />
        </mxCell>
        <mxCell id="wwoop0thXE-48_Gn2f_M-181" value="Posts" style="whiteSpace=wrap;html=1;align=center;fontSize=16;" vertex="1" parent="1">
          <mxGeometry x="109" y="-176" width="100" height="40" as="geometry" />
        </mxCell>
        <mxCell id="wwoop0thXE-48_Gn2f_M-182" value="" style="endArrow=none;html=1;rounded=0;fontSize=12;startSize=8;endSize=8;curved=1;exitX=0.567;exitY=1.003;exitDx=0;exitDy=0;exitPerimeter=0;entryX=0.133;entryY=-0.001;entryDx=0;entryDy=0;entryPerimeter=0;" edge="1" parent="1" source="wwoop0thXE-48_Gn2f_M-184" target="wwoop0thXE-48_Gn2f_M-177">
          <mxGeometry relative="1" as="geometry">
            <mxPoint x="-273" y="-585" as="sourcePoint" />
            <mxPoint x="-262" y="-545" as="targetPoint" />
          </mxGeometry>
        </mxCell>
        <mxCell id="wwoop0thXE-48_Gn2f_M-184" value="username" style="ellipse;whiteSpace=wrap;html=1;align=center;fontSize=16;" vertex="1" parent="1">
          <mxGeometry x="-326" y="-625" width="100" height="40" as="geometry" />
        </mxCell>
        <mxCell id="wwoop0thXE-48_Gn2f_M-185" value="" style="endArrow=none;html=1;rounded=0;fontSize=12;startSize=8;endSize=8;curved=1;exitX=0.443;exitY=1.003;exitDx=0;exitDy=0;exitPerimeter=0;entryX=0.987;entryY=0.004;entryDx=0;entryDy=0;entryPerimeter=0;" edge="1" parent="1" source="wwoop0thXE-48_Gn2f_M-186" target="wwoop0thXE-48_Gn2f_M-177">
          <mxGeometry relative="1" as="geometry">
            <mxPoint x="-154" y="-584" as="sourcePoint" />
            <mxPoint x="-176" y="-544" as="targetPoint" />
          </mxGeometry>
        </mxCell>
        <mxCell id="wwoop0thXE-48_Gn2f_M-186" value="email" style="ellipse;whiteSpace=wrap;html=1;align=center;fontSize=16;" vertex="1" parent="1">
          <mxGeometry x="-194" y="-625" width="100" height="40" as="geometry" />
        </mxCell>
        <mxCell id="wwoop0thXE-48_Gn2f_M-187" value="" style="endArrow=none;html=1;rounded=0;fontSize=12;startSize=8;endSize=8;curved=1;exitX=0.955;exitY=0.706;exitDx=0;exitDy=0;exitPerimeter=0;entryX=-0.004;entryY=0.468;entryDx=0;entryDy=0;entryPerimeter=0;" edge="1" parent="1" source="wwoop0thXE-48_Gn2f_M-189" target="wwoop0thXE-48_Gn2f_M-177">
          <mxGeometry relative="1" as="geometry">
            <mxPoint x="-320" y="-541" as="sourcePoint" />
            <mxPoint x="-272" y="-526" as="targetPoint" />
          </mxGeometry>
        </mxCell>
        <mxCell id="wwoop0thXE-48_Gn2f_M-189" value="email" style="ellipse;whiteSpace=wrap;html=1;align=center;fontSize=16;" vertex="1" parent="1">
          <mxGeometry x="-409" y="-575" width="100" height="40" as="geometry" />
        </mxCell>
        <mxCell id="wwoop0thXE-48_Gn2f_M-203" value="userID" style="ellipse;whiteSpace=wrap;html=1;align=center;fontStyle=4;fontSize=16;" vertex="1" parent="1">
          <mxGeometry x="-372" y="-494" width="100" height="40" as="geometry" />
        </mxCell>
        <mxCell id="wwoop0thXE-48_Gn2f_M-204" value="" style="endArrow=none;html=1;rounded=0;fontSize=12;startSize=8;endSize=8;curved=1;entryX=0.356;entryY=0.999;entryDx=0;entryDy=0;entryPerimeter=0;exitX=1.002;exitY=0.431;exitDx=0;exitDy=0;exitPerimeter=0;" edge="1" parent="1" source="wwoop0thXE-48_Gn2f_M-203" target="wwoop0thXE-48_Gn2f_M-177">
          <mxGeometry relative="1" as="geometry">
            <mxPoint x="-272" y="-475" as="sourcePoint" />
            <mxPoint x="-246" y="-503" as="targetPoint" />
          </mxGeometry>
        </mxCell>
        <mxCell id="wwoop0thXE-48_Gn2f_M-205" value="" style="endArrow=none;html=1;rounded=0;fontSize=12;startSize=8;endSize=8;curved=1;exitX=0.426;exitY=1.008;exitDx=0;exitDy=0;exitPerimeter=0;entryX=1.001;entryY=0.041;entryDx=0;entryDy=0;entryPerimeter=0;" edge="1" parent="1" source="wwoop0thXE-48_Gn2f_M-207" target="wwoop0thXE-48_Gn2f_M-179">
          <mxGeometry relative="1" as="geometry">
            <mxPoint x="318" y="-577" as="sourcePoint" />
            <mxPoint x="296" y="-537" as="targetPoint" />
          </mxGeometry>
        </mxCell>
        <mxCell id="wwoop0thXE-48_Gn2f_M-206" value="" style="endArrow=none;html=1;rounded=0;fontSize=12;startSize=8;endSize=8;curved=1;entryX=0.144;entryY=-0.007;entryDx=0;entryDy=0;entryPerimeter=0;exitX=0.643;exitY=0.994;exitDx=0;exitDy=0;exitPerimeter=0;" edge="1" parent="1" source="wwoop0thXE-48_Gn2f_M-208" target="wwoop0thXE-48_Gn2f_M-179">
          <mxGeometry relative="1" as="geometry">
            <mxPoint x="193" y="-579" as="sourcePoint" />
            <mxPoint x="211" y="-537" as="targetPoint" />
          </mxGeometry>
        </mxCell>
        <mxCell id="wwoop0thXE-48_Gn2f_M-207" value="&lt;u&gt;hashtagID&lt;/u&gt;" style="ellipse;whiteSpace=wrap;html=1;align=center;fontSize=16;" vertex="1" parent="1">
          <mxGeometry x="277" y="-615" width="100" height="40" as="geometry" />
        </mxCell>
        <mxCell id="wwoop0thXE-48_Gn2f_M-208" value="hashtag Text" style="ellipse;whiteSpace=wrap;html=1;align=center;fontSize=16;" vertex="1" parent="1">
          <mxGeometry x="137" y="-615" width="100" height="40" as="geometry" />
        </mxCell>
        <mxCell id="wwoop0thXE-48_Gn2f_M-209" value="Like" style="whiteSpace=wrap;html=1;align=center;fontSize=16;" vertex="1" parent="1">
          <mxGeometry x="-326" y="-197" width="100" height="40" as="geometry" />
        </mxCell>
        <mxCell id="wwoop0thXE-48_Gn2f_M-210" value="" style="endArrow=none;html=1;rounded=0;fontSize=12;startSize=8;endSize=8;curved=1;exitX=0.916;exitY=0.805;exitDx=0;exitDy=0;exitPerimeter=0;entryX=-0.004;entryY=0.099;entryDx=0;entryDy=0;entryPerimeter=0;" edge="1" parent="1" source="wwoop0thXE-48_Gn2f_M-218" target="wwoop0thXE-48_Gn2f_M-209">
          <mxGeometry relative="1" as="geometry">
            <mxPoint x="-378" y="-214" as="sourcePoint" />
            <mxPoint x="-345" y="-185" as="targetPoint" />
          </mxGeometry>
        </mxCell>
        <mxCell id="wwoop0thXE-48_Gn2f_M-211" value="postID" style="ellipse;whiteSpace=wrap;html=1;align=center;fontSize=16;" vertex="1" parent="1">
          <mxGeometry x="-494" y="-165" width="100" height="40" as="geometry" />
        </mxCell>
        <mxCell id="wwoop0thXE-48_Gn2f_M-212" value="" style="endArrow=none;html=1;rounded=0;fontSize=12;startSize=8;endSize=8;curved=1;entryX=0.974;entryY=0.99;entryDx=0;entryDy=0;entryPerimeter=0;exitX=0.429;exitY=0.001;exitDx=0;exitDy=0;exitPerimeter=0;" edge="1" parent="1" source="wwoop0thXE-48_Gn2f_M-213" target="wwoop0thXE-48_Gn2f_M-209">
          <mxGeometry relative="1" as="geometry">
            <mxPoint x="-230" y="-113" as="sourcePoint" />
            <mxPoint x="-247" y="-147" as="targetPoint" />
          </mxGeometry>
        </mxCell>
        <mxCell id="wwoop0thXE-48_Gn2f_M-213" value="likeDate" style="ellipse;whiteSpace=wrap;html=1;align=center;fontSize=16;" vertex="1" parent="1">
          <mxGeometry x="-272" y="-115" width="100" height="40" as="geometry" />
        </mxCell>
        <mxCell id="wwoop0thXE-48_Gn2f_M-214" value="" style="endArrow=none;html=1;rounded=0;fontSize=12;startSize=8;endSize=8;curved=1;exitX=0.999;exitY=0.447;exitDx=0;exitDy=0;exitPerimeter=0;entryX=-0.002;entryY=0.561;entryDx=0;entryDy=0;entryPerimeter=0;" edge="1" parent="1" source="wwoop0thXE-48_Gn2f_M-211" target="wwoop0thXE-48_Gn2f_M-209">
          <mxGeometry relative="1" as="geometry">
            <mxPoint x="-396" y="-149" as="sourcePoint" />
            <mxPoint x="-345" y="-167" as="targetPoint" />
          </mxGeometry>
        </mxCell>
        <mxCell id="wwoop0thXE-48_Gn2f_M-216" value="likeID" style="ellipse;whiteSpace=wrap;html=1;align=center;fontStyle=4;fontSize=16;" vertex="1" parent="1">
          <mxGeometry x="-408" y="-117" width="100" height="40" as="geometry" />
        </mxCell>
        <mxCell id="wwoop0thXE-48_Gn2f_M-217" value="" style="endArrow=none;html=1;rounded=0;fontSize=12;startSize=8;endSize=8;curved=1;entryX=0.354;entryY=0.99;entryDx=0;entryDy=0;entryPerimeter=0;exitX=0.754;exitY=0.062;exitDx=0;exitDy=0;exitPerimeter=0;" edge="1" parent="1" target="wwoop0thXE-48_Gn2f_M-209" source="wwoop0thXE-48_Gn2f_M-216">
          <mxGeometry relative="1" as="geometry">
            <mxPoint x="-345" y="-116" as="sourcePoint" />
            <mxPoint x="-319" y="-144" as="targetPoint" />
          </mxGeometry>
        </mxCell>
        <mxCell id="wwoop0thXE-48_Gn2f_M-218" value="userID" style="ellipse;whiteSpace=wrap;html=1;align=center;fontSize=16;" vertex="1" parent="1">
          <mxGeometry x="-467" y="-245" width="100" height="40" as="geometry" />
        </mxCell>
        <mxCell id="wwoop0thXE-48_Gn2f_M-219" value="" style="endArrow=none;html=1;rounded=0;fontSize=12;startSize=8;endSize=8;curved=1;entryX=0.871;entryY=0.987;entryDx=0;entryDy=0;entryPerimeter=0;exitX=0.364;exitY=0.046;exitDx=0;exitDy=0;exitPerimeter=0;" edge="1" parent="1" source="wwoop0thXE-48_Gn2f_M-220" target="wwoop0thXE-48_Gn2f_M-181">
          <mxGeometry relative="1" as="geometry">
            <mxPoint x="219" y="-102" as="sourcePoint" />
            <mxPoint x="202" y="-128" as="targetPoint" />
          </mxGeometry>
        </mxCell>
        <mxCell id="wwoop0thXE-48_Gn2f_M-220" value="postDate" style="ellipse;whiteSpace=wrap;html=1;align=center;fontSize=16;" vertex="1" parent="1">
          <mxGeometry x="177" y="-96" width="100" height="40" as="geometry" />
        </mxCell>
        <mxCell id="wwoop0thXE-48_Gn2f_M-221" value="" style="endArrow=none;html=1;rounded=0;fontSize=12;startSize=8;endSize=8;curved=1;entryX=0.142;entryY=0.987;entryDx=0;entryDy=0;entryPerimeter=0;exitX=0.688;exitY=0.047;exitDx=0;exitDy=0;exitPerimeter=0;" edge="1" parent="1" source="wwoop0thXE-48_Gn2f_M-222" target="wwoop0thXE-48_Gn2f_M-181">
          <mxGeometry relative="1" as="geometry">
            <mxPoint x="104" y="-97" as="sourcePoint" />
            <mxPoint x="136" y="-127" as="targetPoint" />
          </mxGeometry>
        </mxCell>
        <mxCell id="wwoop0thXE-48_Gn2f_M-222" value="&lt;u&gt;postID&lt;/u&gt;" style="ellipse;whiteSpace=wrap;html=1;align=center;fontSize=16;" vertex="1" parent="1">
          <mxGeometry x="46" y="-100" width="100" height="40" as="geometry" />
        </mxCell>
        <mxCell id="wwoop0thXE-48_Gn2f_M-223" value="" style="endArrow=none;html=1;rounded=0;fontSize=12;startSize=8;endSize=8;curved=1;exitX=0.993;exitY=0.325;exitDx=0;exitDy=0;exitPerimeter=0;entryX=0.117;entryY=0.172;entryDx=0;entryDy=0;entryPerimeter=0;" edge="1" parent="1" source="wwoop0thXE-48_Gn2f_M-181" target="wwoop0thXE-48_Gn2f_M-227">
          <mxGeometry relative="1" as="geometry">
            <mxPoint x="217" y="-151" as="sourcePoint" />
            <mxPoint x="270" y="-122" as="targetPoint" />
          </mxGeometry>
        </mxCell>
        <mxCell id="wwoop0thXE-48_Gn2f_M-224" value="" style="endArrow=none;html=1;rounded=0;fontSize=12;startSize=8;endSize=8;curved=1;entryX=-0.002;entryY=0.367;entryDx=0;entryDy=0;entryPerimeter=0;exitX=1;exitY=0.5;exitDx=0;exitDy=0;" edge="1" parent="1" source="wwoop0thXE-48_Gn2f_M-225" target="wwoop0thXE-48_Gn2f_M-181">
          <mxGeometry relative="1" as="geometry">
            <mxPoint x="63" y="-132" as="sourcePoint" />
            <mxPoint x="114" y="-150" as="targetPoint" />
          </mxGeometry>
        </mxCell>
        <mxCell id="wwoop0thXE-48_Gn2f_M-225" value="authorID" style="ellipse;whiteSpace=wrap;html=1;align=center;fontSize=16;" vertex="1" parent="1">
          <mxGeometry x="-34" y="-149" width="100" height="40" as="geometry" />
        </mxCell>
        <mxCell id="wwoop0thXE-48_Gn2f_M-227" value="context" style="ellipse;whiteSpace=wrap;html=1;align=center;fontSize=16;" vertex="1" parent="1">
          <mxGeometry x="260" y="-134" width="100" height="40" as="geometry" />
        </mxCell>
        <mxCell id="wwoop0thXE-48_Gn2f_M-228" value="" style="endArrow=none;html=1;rounded=0;fontSize=12;startSize=8;endSize=8;curved=1;exitX=0;exitY=1;exitDx=0;exitDy=0;entryX=1;entryY=0;entryDx=0;entryDy=0;" edge="1" parent="1" source="wwoop0thXE-48_Gn2f_M-236" target="wwoop0thXE-48_Gn2f_M-180">
          <mxGeometry relative="1" as="geometry">
            <mxPoint x="613" y="-329" as="sourcePoint" />
            <mxPoint x="583" y="-307" as="targetPoint" />
          </mxGeometry>
        </mxCell>
        <mxCell id="wwoop0thXE-48_Gn2f_M-229" value="&lt;u&gt;commentID&lt;/u&gt;" style="ellipse;whiteSpace=wrap;html=1;align=center;fontSize=16;" vertex="1" parent="1">
          <mxGeometry x="494" y="-399" width="100" height="40" as="geometry" />
        </mxCell>
        <mxCell id="wwoop0thXE-48_Gn2f_M-230" value="" style="endArrow=none;html=1;rounded=0;fontSize=12;startSize=8;endSize=8;curved=1;exitX=1;exitY=1;exitDx=0;exitDy=0;entryX=0.197;entryY=0.08;entryDx=0;entryDy=0;entryPerimeter=0;" edge="1" parent="1" source="wwoop0thXE-48_Gn2f_M-180" target="wwoop0thXE-48_Gn2f_M-231">
          <mxGeometry relative="1" as="geometry">
            <mxPoint x="580" y="-270" as="sourcePoint" />
            <mxPoint x="633" y="-241" as="targetPoint" />
          </mxGeometry>
        </mxCell>
        <mxCell id="wwoop0thXE-48_Gn2f_M-231" value="commentDate" style="ellipse;whiteSpace=wrap;html=1;align=center;fontSize=16;" vertex="1" parent="1">
          <mxGeometry x="606" y="-245" width="119" height="45" as="geometry" />
        </mxCell>
        <mxCell id="wwoop0thXE-48_Gn2f_M-232" value="" style="endArrow=none;html=1;rounded=0;fontSize=12;startSize=8;endSize=8;curved=1;entryX=0.999;entryY=0.44;entryDx=0;entryDy=0;entryPerimeter=0;exitX=0;exitY=0.5;exitDx=0;exitDy=0;" edge="1" parent="1" source="wwoop0thXE-48_Gn2f_M-235" target="wwoop0thXE-48_Gn2f_M-180">
          <mxGeometry relative="1" as="geometry">
            <mxPoint x="627" y="-290.56" as="sourcePoint" />
            <mxPoint x="583" y="-290.56" as="targetPoint" />
          </mxGeometry>
        </mxCell>
        <mxCell id="wwoop0thXE-48_Gn2f_M-235" value="userID" style="ellipse;whiteSpace=wrap;html=1;align=center;fontSize=16;" vertex="1" parent="1">
          <mxGeometry x="621" y="-310" width="100" height="40" as="geometry" />
        </mxCell>
        <mxCell id="wwoop0thXE-48_Gn2f_M-236" value="content" style="ellipse;whiteSpace=wrap;html=1;align=center;fontSize=16;" vertex="1" parent="1">
          <mxGeometry x="603" y="-375" width="100" height="40" as="geometry" />
        </mxCell>
        <mxCell id="wwoop0thXE-48_Gn2f_M-239" value="postID" style="ellipse;whiteSpace=wrap;html=1;align=center;fontSize=16;" vertex="1" parent="1">
          <mxGeometry x="494" y="-218" width="100" height="40" as="geometry" />
        </mxCell>
        <mxCell id="wwoop0thXE-48_Gn2f_M-240" value="" style="endArrow=none;html=1;rounded=0;fontSize=12;startSize=8;endSize=8;curved=1;entryX=0.647;entryY=0.004;entryDx=0;entryDy=0;entryPerimeter=0;exitX=0.574;exitY=0.967;exitDx=0;exitDy=0;exitPerimeter=0;" edge="1" parent="1" source="wwoop0thXE-48_Gn2f_M-229" target="wwoop0thXE-48_Gn2f_M-180">
          <mxGeometry relative="1" as="geometry">
            <mxPoint x="547" y="-359" as="sourcePoint" />
            <mxPoint x="550" y="-315" as="targetPoint" />
          </mxGeometry>
        </mxCell>
        <mxCell id="wwoop0thXE-48_Gn2f_M-241" value="" style="endArrow=none;html=1;rounded=0;fontSize=12;startSize=8;endSize=8;curved=1;exitX=0.774;exitY=0.994;exitDx=0;exitDy=0;entryX=0.47;entryY=0.03;entryDx=0;entryDy=0;entryPerimeter=0;exitPerimeter=0;" edge="1" parent="1" source="wwoop0thXE-48_Gn2f_M-180" target="wwoop0thXE-48_Gn2f_M-239">
          <mxGeometry relative="1" as="geometry">
            <mxPoint x="500" y="-266" as="sourcePoint" />
            <mxPoint x="537" y="-217" as="targetPoint" />
          </mxGeometry>
        </mxCell>
      </root>
    </mxGraphModel>
  </diagram>
</mxfile>
